<?xml version="1.0" encoding="UTF-8"?>
<svg id="katman_1" xmlns="http://www.w3.org/2000/svg" version="1.1" viewBox="0 0 1555.58 514.12">
  <!-- Generator: Adobe Illustrator 30.3.0, SVG Export Plug-In . SVG Version: 2.1.3 Build 182)  -->
  <defs>
    <style>
      .st0 {
        fill: #fff;
      }

      .st1 {
        fill: red;
      }
    </style>
  </defs>
  <path class="st0" d="M758.11,252.36l-322.18-.8c0,33.49,6.11,62.87,18.34,88.12,12.22,25.26,29.17,44.8,50.84,58.61,21.66,13.83,46.45,20.73,74.37,20.73,30.04-.26,56.62-8.44,79.75-24.52,23.13-16.08,39.08-37.14,47.85-63.2h36.68c-6.65,23.92-17.81,45-33.49,63.2-15.69,18.21-34.83,32.3-57.42,42.27-22.6,9.97-47.05,14.95-73.37,14.95-35.62,0-66.79-8.31-93.5-24.92-26.72-16.61-47.45-40.14-62.2-70.58s-22.4-66.12-22.93-107.06c.53-39.61,8.17-74.5,22.93-104.67,14.75-30.17,35.55-53.49,62.4-69.98,26.85-16.48,57.95-24.72,93.31-24.72s66.92,8.31,93.9,24.92c26.98,16.62,47.85,39.94,62.6,69.98s22.13,64.86,22.13,104.47v3.19h-.01ZM721.43,222.06c-3.46-28.44-11.56-53.16-24.32-74.17-12.76-21-29.31-37.15-49.64-48.45-20.34-11.29-43-16.95-67.99-16.95s-47.59,5.65-67.79,16.95c-20.2,11.3-36.75,27.38-49.64,48.25-12.9,20.87-21.07,45.39-24.52,73.57l283.9.8Z"/>
  <path class="st0" d="M960.68,49.8l-.1,4.12-.1-4.12c-99.42,0-149.13,53.17-149.13,159.5v232.86h36.68v-225.69c0-48.38,9.64-82.67,28.91-102.87,19.15-20.07,47.04-30.16,83.63-30.29,36.6.13,64.48,10.22,83.63,30.29,19.27,20.2,28.91,54.5,28.91,102.87v225.69h36.68v-232.86c0-106.33-49.71-159.5-149.13-159.5h.02Z"/>
  <polygon class="st0" points="1451.01 277.86 1360.43 59.37 1322.94 59.37 1164.25 442.16 1202.52 442.16 1341.29 98.85 1413.64 277.86 1451.01 277.86"/>
  <polygon class="st1" points="1424.7 305.22 1480.05 442.16 1519.12 442.16 1462.35 305.22 1424.7 305.22"/>
  <polygon class="st0" points="187.97 375.96 60.01 59.37 20.94 59.37 170.27 419.57 187.97 375.96"/>
  <polygon class="st0" points="337.54 59.37 235.53 311.75 235.58 311.77 221.76 345.83 198.77 402.69 198.72 402.56 182.64 442.16 217.12 442.16 375.81 59.37 337.54 59.37"/>
</svg>