<?xml version="1.0" encoding="UTF-8"?>
<svg id="katman_1" xmlns="http://www.w3.org/2000/svg" version="1.1" viewBox="0 0 1585.09 464.29">
  <!-- Generator: Adobe Illustrator 30.3.0, SVG Export Plug-In . SVG Version: 2.1.3 Build 182)  -->
  <defs>
    <style>
      .st0 {
        fill: #001741;
      }

      .st1 {
        fill: red;
      }
    </style>
  </defs>
  <path class="st0" d="M776.58,231.2l-322.18-.8c0,33.49,6.11,62.87,18.34,88.12,12.22,25.26,29.17,44.8,50.84,58.61,21.66,13.83,46.45,20.73,74.37,20.73,30.04-.26,56.62-8.44,79.75-24.52,23.13-16.08,39.08-37.14,47.85-63.2h36.68c-6.65,23.92-17.81,45-33.49,63.2-15.69,18.21-34.83,32.3-57.42,42.27-22.6,9.97-47.05,14.95-73.37,14.95-35.62,0-66.79-8.31-93.5-24.92-26.72-16.61-47.45-40.14-62.2-70.58s-22.4-66.12-22.93-107.06c.53-39.61,8.17-74.5,22.93-104.67,14.75-30.17,35.55-53.49,62.4-69.98,26.85-16.48,57.95-24.72,93.31-24.72s66.92,8.31,93.9,24.92c26.98,16.62,47.85,39.94,62.6,69.98s22.13,64.86,22.13,104.47v3.19h-.01ZM739.89,200.9c-3.46-28.44-11.56-53.16-24.32-74.17-12.76-21-29.31-37.15-49.64-48.45-20.34-11.29-43-16.95-67.99-16.95s-47.59,5.65-67.79,16.95c-20.2,11.3-36.75,27.38-49.64,48.25-12.9,20.87-21.07,45.39-24.52,73.57l283.9.8Z"/>
  <path class="st0" d="M979.14,28.64l-.1,4.12-.1-4.12c-99.42,0-149.13,53.17-149.13,159.5v232.86h36.68v-225.69c0-48.38,9.64-82.67,28.91-102.87,19.15-20.07,47.04-30.16,83.63-30.29,36.6.13,64.48,10.22,83.63,30.29,19.27,20.2,28.91,54.5,28.91,102.87v225.69h36.68v-232.86c0-106.33-49.71-159.5-149.13-159.5h.02Z"/>
  <polygon class="st0" points="1469.47 256.7 1378.89 38.21 1341.41 38.21 1182.71 421 1220.99 421 1359.75 77.69 1432.1 256.7 1469.47 256.7"/>
  <polygon class="st1" points="1443.16 284.06 1498.51 421 1537.59 421 1480.81 284.06 1443.16 284.06"/>
  <polygon class="st0" points="206.43 354.8 78.48 38.21 39.4 38.21 188.73 398.41 206.43 354.8"/>
  <polygon class="st0" points="356 38.21 253.99 290.59 254.04 290.61 240.22 324.67 217.24 381.53 217.18 381.4 201.11 421 235.58 421 394.28 38.21 356 38.21"/>
</svg>